<?xml version="1.0" encoding="utf-8"?>
<!-- Generator: Adobe Illustrator 19.2.1, SVG Export Plug-In . SVG Version: 6.00 Build 0)  -->
<svg version="1.1" id="Layer_1" xmlns="http://www.w3.org/2000/svg" xmlns:xlink="http://www.w3.org/1999/xlink" x="0px" y="0px"
	 viewBox="0 0 798 798" style="enable-background:new 0 0 798 798;" xml:space="preserve">
<style type="text/css">
	.st0{fill:#56BBEC;}
	.st1{fill:#8E7E7E;}
	.st2{fill:#242128;}
	.st3{fill:#7A6F6F;}
	.st4{fill:#262423;}
	.st5{fill:#8C8387;}
	.st6{fill:#93868B;}
	.st7{fill:#847B7F;}
	.st8{fill:#7C7779;}
	.st9{fill:#302D2D;}
	.st10{fill:#473544;}
	.st11{fill:#5F4559;}
	.st12{fill:#99878C;}
	.st13{fill:#938388;}
</style>
<circle class="st0" cx="399" cy="399" r="399"/>
<image style="display:none;overflow:visible;enable-background:new    ;" width="1080" height="720" xlink:href="8246DCEC7B0FB38C.jpeg"  transform="matrix(1 0 0 1 -66.5002 36.0005)">
</image>
<polygon class="st1" points="375.5,361.3 359.7,413.3 303.7,472.7 234.2,417 242.2,471.8 277.8,546.6 373.2,573 535.5,542.8 
	543,321.3 478.5,216.3 348,250.5 "/>
<rect x="229.8" y="337" class="st0" width="334.7" height="81.7"/>
<polygon class="st2" points="228.7,349.5 232.3,368 240.8,349.7 262.2,282.7 277.5,202 222.5,308.5 "/>
<polygon class="st3" points="372.5,372.6 376.5,389.2 420.5,388.4 417.5,361.3 "/>
<polygon class="st4" points="546.8,357.3 550,360.3 558.7,362.9 561.5,358.9 558.6,356.5 549.2,356 549.2,355 537.1,346.3 
	534.7,344.5 537.6,349.4 544.6,354.5 "/>
<rect x="557.2" y="361.3" class="st2" width="8.5" height="22.5"/>
<polygon class="st5" points="380.5,463.7 373.2,457 373.2,442.3 380.5,435 393.8,435 399.2,441 400.8,456 395.8,463.7 "/>
<polygon class="st3" points="411.9,389.2 411.9,394.7 417.7,398.2 418.4,390.1 "/>
<polygon class="st6" points="403.5,372.3 406.2,385 400.8,405 403.5,432 399.2,441 393.8,435 380.5,435 373.2,441 371.8,429.3 
	374.5,406.7 378.8,387 384.2,374 "/>
<g>
	<polygon class="st7" points="406.2,377.3 416.2,397.3 422.8,435 437.2,444.7 441.2,461.7 433.2,476.7 426.5,463.7 397.5,463.7 
		400.8,456 399.2,441 402.7,433.6 400.8,405 406.2,383.7 	"/>
	<polyline class="st7" points="379.2,463.7 362.5,463.7 362.5,469.3 362.5,478.3 353.8,476.7 345.5,461 348.2,453.7 352.2,446 
		362.3,441 369.2,409.3 379.2,386.2 374.5,406.7 371.8,429.3 373.2,441 373.2,457 380.5,463.7 	"/>
</g>
<polygon class="st8" points="362.5,478.3 380.5,474 397.5,472.7 408.8,475.5 426.5,480 431.8,476.7 426.5,463.7 362.5,463.7 "/>
<polygon class="st9" points="389,487 387,499.7 380.5,508.3 347.5,517.3 329.8,529 325.2,548.7 329.8,577.3 353.5,601 367.5,609.3 
	383.8,594.3 393.2,572.3 397.5,564 409.5,563.7 411.2,575.7 424.8,598.3 447.5,596.3 468.8,584.7 474.8,563.7 477.2,535.7 
	465.5,525.3 437.5,514.7 413.2,506.3 410.2,503.7 408.2,484.3 424.2,487.7 447.2,502.3 473.5,513.7 493.2,532.7 493.2,548.7 
	493.2,569 499.5,573 516.2,531.3 538.5,518.3 553.8,482 561.5,449.3 561.5,418.7 564.5,418.7 566.5,427 568.2,454.7 568.2,474.7 
	562.8,497 558.5,526.3 549.5,552.7 534.8,581 512.8,612.7 493.5,632 473.5,647.7 462.5,658 443.5,663.7 419.8,668.7 395.8,668.7 
	376.5,662.7 345.5,653.7 316.2,632.3 296.2,609.7 266.2,571 253.2,545.3 239.2,511.3 240.8,488.3 237.5,466.7 237.5,446 234.2,424 
	234.2,417 238.5,418.3 238.5,432.3 242.2,449.3 249.8,480 256.2,500.7 267.5,519.3 286.8,547.7 301.5,560 310.2,561 310.2,548 
	312.8,528 321.2,512.3 330.5,504 345.5,501.7 352.8,494.3 360.5,488.3 371.8,486.7 387,486.7 "/>
<polygon class="st4" points="240.8,402.7 257.8,411 295.2,414.7 332.5,414.7 357.2,408.7 368.8,396 374.5,372.3 384.5,372.3 
	403.8,371 419.3,371 423.2,390.7 437.5,406.7 460.5,414.7 510.2,410.3 542.5,400.7 548.8,392.8 552.8,372.3 559.2,372.3 557.5,358 
	549.2,358 547.8,386.2 541.5,396 508.8,406.7 459.8,410 437.5,402.7 425.5,386.3 421.5,369.3 422.5,356 438.2,349.3 473.5,345.3 
	503.8,345.3 533.5,348 546.8,357.3 549.2,355 535.5,345.3 527.2,336.3 511.8,326.3 473.5,321.3 451.2,327.7 424.5,332.7 
	417.5,343.7 419.3,352.7 415.8,353.7 406.2,355.7 393.5,355.7 384.2,356 370.2,352.7 363,349 364.5,341.7 358.2,328.3 338.2,324.7 
	310.5,324 280.8,326 267.2,334.7 260.5,341.3 261.2,344.7 252.5,347 240.8,349.7 236.2,353.3 234.2,361 231.5,361.3 223.5,361.3 
	218.8,365.7 220.2,374 234.2,374.7 236.2,389 238.8,401.3 238.2,375 239.8,358 242.8,352.7 252.8,349.7 263.2,347.7 291.2,346.7 
	318.2,345 339.8,345.7 353.2,348.3 362.5,351.3 369.2,357.3 371.8,362.3 369.5,372.3 367.2,392.3 356.2,404.3 332.5,410.3 
	295.5,411 258.5,406.7 242.2,399.7 "/>
<polygon class="st2" points="514.2,130 526.8,97.3 536.8,76 514.2,84 509.5,76 502.8,106 486.2,70.7 483.5,100.3 477.5,116.7 
	464.8,89.3 428.8,77.3 428.8,80 401.2,70.7 401.2,74.7 373.2,64.7 380.5,78 366.8,64.7 366.8,78 342.2,68.7 342.2,75.3 322.2,75.3 
	296.2,72 296.2,78 278.8,89.3 302.2,92 281.5,102 307.5,116.7 248.2,122 262.8,126.7 224.2,153.3 211.5,180 211.5,192.7 
	226.8,180.7 226.2,192.7 211.5,213.3 205.5,242 200.8,280.7 210.2,324 222.8,352.7 225.5,361.3 231.5,361.3 236.2,353.3 
	240.8,349.7 238.2,336 248.8,312.7 256.2,298.7 251.5,263.3 262.2,230 280.2,213 321.5,190 353.5,201.3 387,210 410.2,206.7 
	435.5,191.3 473.5,188 512.8,207.3 540.8,241.3 548.2,271.3 543.5,294 559.2,324 559.2,350 557.5,358 559.2,364.7 568.2,368 
	574.2,368 574.2,342 578.2,315.3 580.8,303.3 584.2,282 584.2,270.7 574.8,241.3 584.2,242.7 584.2,227.3 594.2,230 578.8,203.3 
	568.2,187.3 586.8,196 562.2,169.3 568.2,166.7 547.5,151.3 559.2,148.7 522.8,138 535.5,129.3 "/>
<polygon class="st10" points="395.5,518.8 385.7,514.8 376.2,516.8 362.5,521.8 348.2,531.3 341,538.5 362.5,537.3 393.7,538.5 
	416,536.3 436,533.3 444.5,533.3 462,538.5 468.7,538.5 455.2,531.8 445,523.8 431.8,518.3 421.7,514.8 410.7,513.3 403,515.8 "/>
<polygon class="st11" points="341,538.5 353.2,545 373.2,554.3 399.5,560 414,558.5 430,556 444.5,549.3 455.2,542.8 462,538.5 
	444.5,533.3 436,533.3 393.7,538.5 362.5,537.3 "/>
<g>
	<polygon class="st12" points="279.2,587.8 277.8,621.3 279.2,653.7 301.2,688.7 358.2,729 391.5,734 442.8,734 477.8,723.7 
		505.8,691 533.8,657 538.8,641 538.8,611.3 533,583.6 524.2,596.3 514.5,610.3 497.5,628 473.5,647.7 463.5,657 447.8,662.4 
		415.5,668.7 395.8,668.7 345.5,653.7 316.2,632.3 	"/>
	<polygon class="st12" points="240.8,349.7 261.2,344.7 260.5,341.3 267.2,334.7 278.7,312.8 290.7,296.3 322.5,293.5 363,297.5 
		389,303.5 449.7,300.5 489.2,296 510.5,305.8 520.5,317.3 527.2,336.3 534.7,344.5 549.2,355 549.2,358 557.7,357.1 559.2,350 
		559.2,324 543.5,294 548.2,271.3 540.8,241.3 512.8,207.3 441.2,236 400.8,216.3 368.8,221.3 310.8,247.3 262.2,230 251.5,263.3 
		256.2,298.7 238.2,336 	"/>
	<path class="st12" d="M368.8,396l-11.7,12.7l-24.7,6h-37.3l-37.3-3.7l-17-8.3l-2.3,15.7v13.9l17.7,68.4l30.7,47l14.7,12.3l8.7,1
		v-13l2.7-20l-5.1-30.5c5.5-19.2,5.5-19.2,5.5-19.2l15.5-19.5l21-29.3l11.3-18.7L368.8,396z"/>
	<polygon class="st12" points="423.2,390.7 430,427 485.7,497.3 493.2,532.7 493.2,569 499.5,573 516.2,531.3 538.5,518.3 
		553.8,482 561.5,449.3 561.5,418.7 564.5,418.7 565.7,407 559.2,376 559.2,372.3 552.8,372.3 548.8,392.8 542.5,400.7 510.2,410.3 
		460.5,414.7 437.5,406.7 	"/>
</g>
<polygon class="st9" points="234.2,374.7 222.5,374.1 224.4,378.3 223.7,386.2 224.7,396 234.2,399.8 234.2,417 238.5,418.3 
	240.8,402.7 242.2,399.7 238.5,399.8 "/>
<polygon class="st9" points="559.2,364.7 559.2,372.3 561,401.8 561.5,418.7 564.5,418.7 565.7,407 "/>
<g>
	<g>
		<polygon class="st13" points="321.5,190 387,210 410.2,206.7 435.5,191.3 473.5,188 512.8,207.3 441.2,236 400.8,216.3 
			368.8,221.3 310.8,247.3 262.2,230 280.2,213 		"/>
		<polygon class="st13" points="389,303.5 363,297.5 322.5,293.5 290.7,296.3 278.7,312.8 267.2,334.7 280.8,326 310.5,324 
			338.2,324.7 358.2,328.3 364.5,341.7 363,349 370.2,352.7 384.2,356 406.2,355.7 419.3,352.7 417.5,343.7 424.5,332.7 
			473.5,321.3 511.8,326.3 527.2,336.3 520.5,317.3 510.5,305.8 489.2,296 449.7,300.5 411.7,303 		"/>
		<polyline class="st13" points="384.2,374 379.2,386.2 369.2,409.3 362.3,441 352.2,446 345.5,461 353.8,476.7 362.5,478.3 
			380.5,474 397.5,472.7 426.5,480 431.8,476.7 433.2,476.7 441.2,461.7 437.2,444.7 422.8,435 416.2,397.3 406.2,376.3 419.3,371 
			423.2,390.7 430,427 448.2,451.5 465,470.3 485.7,497.3 493.2,532.7 473.5,513.7 447.2,502.3 424.2,487.7 408.2,484.3 
			410.2,503.7 407.2,506.5 397.5,507.3 387,506.3 384.6,502.8 387,499.7 389,487 371.8,486.7 360.5,488.3 345.5,501.7 330.5,504 
			321.2,512.3 312.8,528 307.7,497.5 313.2,478.3 334.2,451.8 348,432.3 359.7,413.3 368.8,396 374.5,372.3 		"/>
		<polygon class="st13" points="325.8,639.3 345.5,686 391.5,734 442.8,734 473.5,686.7 486.8,644 486.8,637.2 473.5,647.7 
			463.5,657 447.8,662.4 419.3,668.7 395.8,668.7 345.5,653.7 		"/>
		<polygon class="st13" points="387,506.3 397.5,507.3 407.2,506.5 410.2,503.7 413.2,506.3 465.5,525.3 477.2,535.7 474.8,563.7 
			468.8,584.7 447.5,596.3 424.8,598.3 411.2,575.7 409.5,563.7 397.5,564 383.8,594.3 367.5,609.3 353.5,601 329.8,577.3 
			325.3,549.3 325.2,548.7 329.8,529 347.5,517.3 380.5,508.3 384.6,502.8 386.4,505.4 385.7,514.8 376.2,516.8 362.5,521.8 
			348.2,531.3 341,538.5 373.2,554.3 399.5,560 430,556 445,548.9 462,538.5 468.7,538.5 455.2,531.8 445,523.8 431.8,518.3 
			421.7,514.8 410.7,513.3 395.5,518.8 386.7,515.1 		"/>
		<polygon class="st13" points="234.2,399.8 232.3,382.5 222.5,386.2 218.8,401.5 222.5,410.5 229.8,430 232.3,456.5 237.5,466.7 
			238.5,447 235.4,432.3 234.2,406.7 		"/>
		<polygon class="st13" points="562.2,382.4 561.9,364.7 572.5,367.2 578.2,382.2 575.6,391.8 570.5,412.5 571.2,439.6 567.1,450.6 
			563.6,430.8 564.9,415.5 563,389.4 		"/>
	</g>
	<polygon class="st13" points="386.7,515.1 380.5,513.3 387,499.7 394,507.4 	"/>
</g>
<polygon class="st3" points="417.7,398.2 410,386.2 406.2,383.7 404.1,375.2 406.2,377.3 411.7,385.2 "/>
<polygon class="st4" points="549.2,355 554.1,358 550,360.3 548.1,357.6 "/>
</svg>
