<?xml version="1.0" encoding="utf-8"?>
<!-- Generator: Adobe Illustrator 19.2.1, SVG Export Plug-In . SVG Version: 6.00 Build 0)  -->
<svg version="1.1" id="Layer_1" xmlns="http://www.w3.org/2000/svg" xmlns:xlink="http://www.w3.org/1999/xlink" x="0px" y="0px"
	 viewBox="0 0 798 798" style="enable-background:new 0 0 798 798;" xml:space="preserve">
<style type="text/css">
	.st0{clip-path:url(#SVGID_2_);fill:#5ABBEA;}
	.st1{clip-path:url(#SVGID_2_);fill:#C09D84;}
	.st2{clip-path:url(#SVGID_2_);}
	.st3{fill:#AF907B;}
	.st4{clip-path:url(#SVGID_2_);fill:#AF907B;}
	.st5{fill:#21171D;}
	.st6{opacity:0.77;clip-path:url(#SVGID_2_);fill:#7C5A60;}
	.st7{opacity:0.77;clip-path:url(#SVGID_2_);fill:#825E65;}
	.st8{clip-path:url(#SVGID_2_);fill:#AF9182;}
	.st9{clip-path:url(#SVGID_2_);fill:#BA977E;}
	.st10{clip-path:url(#SVGID_2_);fill:#7C695C;}
	.st11{clip-path:url(#SVGID_2_);fill:#1E151B;}
	.st12{clip-path:url(#SVGID_2_);fill:#181225;}
	.st13{clip-path:url(#SVGID_2_);fill:#262630;}
	.st14{fill:#C09D84;}
	.st15{fill:#AA8C77;}
	.st16{fill:#9B806F;}
	.st17{fill:#C4BBC4;stroke:#0F1621;stroke-miterlimit:10;}
	.st18{fill:#0D1520;}
	.st19{fill:#6E7282;}
	.st20{opacity:0.6;clip-path:url(#SVGID_2_);}
	.st21{fill:#A4A1A0;}
	.st22{fill:#2D2029;}
	.st23{opacity:0.4;clip-path:url(#SVGID_2_);}
	.st24{fill:#262630;}
	.st25{clip-path:url(#SVGID_2_);fill:none;stroke:#281F27;stroke-miterlimit:10;}
	.st26{clip-path:url(#SVGID_2_);fill:none;stroke:#261E25;stroke-miterlimit:10;}
	.st27{clip-path:url(#SVGID_2_);fill:#21171D;}
</style>
<g>
	<defs>
		<circle id="SVGID_1_" cx="398" cy="399" r="399"/>
	</defs>
	<clipPath id="SVGID_2_">
		<use xlink:href="#SVGID_1_"  style="overflow:visible;"/>
	</clipPath>
	<circle class="st0" cx="399" cy="398" r="399"/>
	<polygon id="cabeça_1_" class="st1" points="275.8,162.2 259.8,259.2 259.8,339.2 270.7,430.8 309,539.2 449,563.2 513,496.2 
		538,423.2 547.2,343.2 547.2,243.2 518,151.2 432,119.2 341,119.2 288,143.2 	"/>
	<polygon id="pescoço" class="st1" points="297,534.2 292,576.2 275.8,589.2 282,624.2 291,656.2 312,685.2 329.5,718.2 379,724.2 
		419.5,719.2 467,713.2 509.3,675.2 523,639.2 531.5,608.2 531.5,575.2 514,563.2 509,511.2 449,579.2 329.5,563.2 	"/>
	<polygon id="orelha_esquerda" class="st1" points="557,307.2 561.7,309.2 563.3,315.8 562,326.3 563.3,339.5 562,349.8 
		560.2,366.2 558.7,378.8 554,395.5 547.2,409.2 538,423.2 547.2,343.2 549,307.2 	"/>
	<polygon id="orelha_direita" class="st1" points="246.8,308.2 242.1,310.2 240.4,316.8 241.8,327.3 240.4,340.5 241.8,350.8 
		243.6,367.2 245.1,379.8 249.8,396.5 256.5,410.2 265.8,424.2 256.5,344.2 254.8,308.2 	"/>
	<g class="st2">
		<polygon class="st3" points="329.4,144 354,171.2 341.9,191.2 341.9,213.2 354,228.2 377,221.3 403.5,221.3 427,228.2 445,207.2 
			445,186.1 449.8,171.2 472.6,150.8 433,125.2 		"/>
		<polygon class="st3" points="389,329.4 393.5,322.2 402.5,322.2 411.5,322.2 416.7,324.1 412.7,313.6 407,311.5 401,311.5 
			393.5,313.4 389,317.1 		"/>
		<polygon class="st3" points="379.5,366.2 379.5,357.2 383.1,349.7 387.2,339.4 389,329.4 382,339.4 374.6,355.4 370.5,358.7 
			367,366.2 360,376.1 361.2,391.9 354,411.2 338.5,422.4 335.8,436.4 339,482.9 374.8,513.2 464.5,507.7 477.5,429.7 470.5,419.4 
			460,409.2 450.5,399.9 449.5,383.7 443.8,365.7 434.2,349.7 416.7,324.1 416.7,334.4 423,346.7 425.8,357.7 427,364.2 
			434.8,368.7 440.2,374.9 443.5,381 444.2,387.1 443.8,392.9 440.2,398.2 430.5,403.2 423,406.9 415.5,410.4 409,407.9 
			403.5,411.2 394.7,410.2 389,405.2 375.5,403.4 368.5,398.4 367,389.2 368.5,381 373.5,372.2 		"/>
		<polygon class="st3" points="305.5,275.9 309,271.8 326.8,254.7 353.5,251.7 380,260.7 393.5,268.5 406.6,266.7 423,261.7 
			435.5,251.7 449.8,251.7 472.6,257.2 494.5,268.5 506.7,281 449.8,281 412.5,295.7 360,286.4 308,281.2 		"/>
	</g>
	<polyline class="st4" points="359,610.7 355,637.7 362,672.2 381,719.7 431.4,725 445,669.2 449,636.7 445,607.7 	"/>
	<g id="cabelo_1_" class="st2">
		<polygon class="st5" points="263,322.2 263,279.2 273,225.2 287,177.2 313,149.2 332,143.2 375,150.2 398.1,153.2 420,143.2 
			463,143.2 496,169.2 519,202.2 519,232.7 532,264.2 537,313.2 543,345.2 547.7,366.9 551,382.2 551,367.9 556.8,369.7 
			550.2,360.9 562,368.2 564.5,366.9 560.8,364.9 551.2,355.2 560.2,361.7 556.8,351.4 561.5,357.2 553.8,343.7 557.2,343.2 
			555,332.9 551.8,324.7 556.8,328.9 555.5,312.2 556.2,304.2 563,310.2 561.5,294.7 562.2,280.9 564.5,262.7 565.8,241.2 
			563.5,220.4 558.8,200.9 557,191.7 551.8,179.7 554.8,181.9 543.8,165.9 531,153.7 541.8,160.2 533.8,147.9 544.2,157.2 
			545.2,160.9 546.2,154.9 535.2,143.2 542,147.4 534.8,135.2 528.8,129.2 532.8,129.2 529,119.2 515.5,108.7 508.5,99.2 
			503.5,94.7 509.2,96.4 495,86.9 483,82.7 491.2,82.7 477.5,76.4 473,70.9 458.2,70.9 450.2,66.2 440.8,62.7 426.5,62.7 
			409.5,60.4 392.2,60.4 374.5,61.7 360.5,64.4 345.2,66.9 333.8,76.4 325.5,84.7 322,89.4 312.5,91.7 296,94.7 282.8,99.9 
			270,111.9 255.5,129.7 249.2,140.7 243.2,145.7 240.5,150.2 237.5,156.4 235.8,162.9 235.8,169.4 229.5,178.2 225.5,184.9 
			221.2,193.9 221.2,203.2 223.5,197.9 224.8,209.7 223.2,218.2 228.5,207.4 223.5,222.4 224.2,237.7 226.2,245.2 228.5,242.2 
			228.8,252.7 230.8,266.7 234.2,282.7 238,294.4 238.8,304.4 244.2,314.9 246.2,324.7 242.2,337.2 249,331.4 245,340.7 240,345.9 
			247.8,342.9 244.5,349.2 240.2,355.9 248.5,348.9 243.2,364.7 247.2,362.4 244.8,376.1 252,369.7 256,379.9 264.8,382.2 
			263.5,363.4 262.2,342.4 263,326.7 		"/>
		<path class="st5" d="M270.7,430.8c-2,1.3-7.3,24-7.3,24l-8.7,20l10.7-9.3l-2.7,24.7l-5.3,10.7l13.3-12v16l-2.7,18l12.7-14.7v32
			l11.3-14L270.7,430.8z"/>
		<polyline class="st5" points="549,464.2 544,472.2 549,479.5 536.7,479.5 549,494.2 536.7,490.8 541.3,505.5 528.7,499.5 
			534.7,520.2 517.3,506.8 528,528.8 509.3,505.5 536.7,430.8 536.7,453.5 545.3,456.8 554,452.2 		"/>
	</g>
	<polygon class="st6" points="406,443.4 398.8,439 387.3,441.2 367,447.4 353.3,447.4 367.3,451 388,452.4 401.3,452.4 419.5,452.4 
		435.3,448.1 449.3,443 453.5,441.2 440.3,440.8 427,439 415.7,437.2 	"/>
	<polygon class="st7" points="403.5,469.5 395,469.5 383.1,466.6 367.7,459 359.9,454.6 353.3,447.4 367.3,451 388,452.4 
		419.5,452.4 446.2,444.1 453.5,441.2 448.7,448.4 443.2,455.3 434.7,460.8 427,465.5 419.4,468.1 411,469.5 	"/>
	<polygon class="st4" points="368,376.1 365,391.2 371,404.5 400.3,412.8 428.2,409.4 446.7,394.5 445,378.5 433.3,362.2 
		418.9,330.8 411.3,304.1 392.3,304.1 387,328.2 371.3,355.8 	"/>
	<polygon class="st8" points="380.7,396.2 380.7,390.8 380.7,380.5 388.2,376.1 393.5,353.3 402.8,336.5 411,341.7 416.7,353.3 
		416.7,365.7 423,374.2 431,380.2 433.3,393.8 423,399.8 411.7,402.2 398.1,402.2 	"/>
	<polygon class="st9" points="380.7,396.2 377,396.2 374.7,388.5 374.7,379.5 377.7,372.2 385,366.2 394.6,349.7 414.3,349.7 
		423,363.7 425.3,369.3 429.5,372.9 433.3,376.1 434.7,382.2 436.3,387.1 436.3,390.8 433.3,393.8 	"/>
	<polygon class="st1" points="406.8,326.3 409,329.4 413.7,337.8 414.3,349.7 413.3,361.8 414.3,370.2 419.5,376.1 423,383.8 
		419.4,391.5 411,398 401,396.8 393.5,391.8 390.7,387.1 393.5,372.2 394.6,364.2 394.6,349.7 393.5,339.4 395.7,329.4 	"/>
	<polygon class="st10" points="423,396.2 429.5,393.8 433.3,393.8 429.5,398 423,399.8 	"/>
	<polygon class="st10" points="378.7,396.2 384,396.2 389.7,396.2 393.7,398.2 389.3,399.8 383,399.8 	"/>
	<polygon class="st1" points="395.7,329.4 396.8,320.5 401.5,313.6 405.5,313.6 408.5,315.2 410.6,318.8 412,324.9 412.9,331.7 
		413.7,337.8 	"/>
	<polygon class="st11" points="410.7,422.2 419.3,434.8 434.5,433.2 453.3,438.2 464.7,453.5 464.7,471.5 456,476.8 457.3,490.8 
		446,497.5 425.3,492.8 414.6,484.8 410.7,470.8 398.1,474.2 398.1,488.8 382.7,497.5 360,497.5 350.7,482.8 338,468.8 348,450.8 
		360,444.2 379.3,438.2 392,436.2 398.1,434.2 401.3,422.2 394.7,410.2 382.7,412.8 366.7,418.8 346.7,424.8 337.1,431.9 
		334.2,434.1 328.7,438.2 334.7,440.2 331.3,446.8 328.7,458.8 314,468.2 298.7,462.2 287.3,444.2 275.3,424.2 269.3,398.2 
		264.8,369 262,330.8 256,366.2 256,392.8 256,408.2 260,426.2 256,443.5 266.7,456.8 268,476.2 278.7,488.8 276.7,511.5 
		286.7,520.2 285.3,534.8 295.3,544.2 302,569.5 315.3,585.5 328,598.2 344.7,609.5 365.3,620.8 387.3,627.5 395,625.8 400,627.5 
		408,624.8 416.7,625.8 426.7,621.8 433.7,622.8 446.7,616.5 456.7,616.2 459.3,610.2 469.7,609.8 474.7,603.5 483.7,602.5 
		491.3,594.8 497,585.8 502,577.8 508,571.8 516.7,560.8 520.7,548.2 524,536.5 524,520.2 529,514.2 526.3,498.5 537.7,487.8 
		536,470.2 541.7,456.2 536.7,438.8 543.3,423.8 540.3,410.5 543.3,392.8 549,373.5 549,354.8 542.7,347.5 539,354.2 533.7,371.2 
		530.3,392.2 528.3,409.8 524.3,428.5 520.3,448.2 509,458.2 498.7,461.8 486,460.5 479.3,453.8 476.7,441.8 482,437.8 478.3,432.2 
		484.7,431.5 471.3,425.8 460,419.5 452,417.2 442,413.2 432.5,409.7 424.3,409.2 416,412.2 	"/>
	<polygon class="st12" points="292,576.2 278,591.2 284.5,619.2 297,658.2 316,683.2 346,709.2 381,719.7 419.5,719.2 446,713.2 
		487,685.2 511,656.2 525,621.2 528.3,582.5 520.8,567.8 535,573.2 556,586.2 583,597.2 618,610.2 717.2,638.7 680.6,706.8 697,802 
		73,797 92.6,653.6 156,626.2 198,615.2 235,596.2 256,588.2 	"/>
	<path id="óculos" class="st13" d="M267.2,322.4c0.2-1.2,4,13.5,4,13.5l4.8,15.2l6.5,11.8l8.8,5l17.8,3l14.8,1.2h20.8l15.2-4.5
		l12.2-8l10-16.2l7-14l3-11l1.8-7.2l6.8-3.2l8.2,1.2l5.9,6.5l2.6,10.8l3.8,10.2l5.8,12.2l8,8.8l10.8,7.2l12.5,3.5l15.2,1.2l14.8,0.5
		l16.8-2.5l14.8-4.2l8.5-8.5l4-10l2.2-10.5l2.5-11.2l2-7.5l2.8-5.8l5.8-3.8v-11v-8.5l-1.2-4.2h-7.8l-18.2-2l-15.2-2l-19.2-2.5
		l-14.5,1.2l-15,2.5l-17.5,4.2l-12,3.5l-16,2.5l-10.8,0.5l-11.2-2l-35.2-6.2l-22.2-0.5l-23-0.5l-20,2.5l-12.5,2.5l-8.2,1.8l-7.5,1.2
		v12.8v7.8l3.2,5.2l4.5,3.2L267.2,322.4z"/>
	<g id="lentes" class="st2">
		<polygon class="st14" points="277.5,300.2 275.8,307.7 275.8,317.4 275.8,324.9 277.5,335.9 282.8,348.7 289,358.2 295,362.7 
			305.2,364.9 319.8,366.2 333,366.2 345,363.9 359.8,359.4 367.2,354.9 373.5,345.7 379,333.2 383.2,321.7 383.2,310.2 
			383.2,302.2 375.8,295.9 363.8,290.7 350.5,287.7 332,286.4 313.5,286.4 300.2,286.4 287.8,289.7 279.8,294.9 		"/>
		<polygon class="st14" points="423.8,326.3 419.5,317.7 419.5,308.2 423.8,298.4 433.5,291.7 443.8,287.7 455.5,284.7 465,282.9 
			477.8,282.9 490.5,282.9 502,282.9 511.5,284.2 519.2,286.4 526.5,291.4 529.8,299.2 531.5,311.7 530.2,322.7 529,331.9 
			526,343.2 521.2,351.4 515.8,357.2 506,360.7 492.5,362.7 482,364.2 474.2,364.2 463.2,364.2 452.5,361.4 443.2,357.4 
			436.8,349.7 431.5,341.4 427,333.9 		"/>
	</g>
	<g id="olheiras-fundo" class="st2">
		<polygon class="st15" points="291.8,300.9 276.5,310.7 276.5,322.7 284.1,330.8 312.5,339.4 370,320.2 377,303.7 362.5,295.7 
			348.2,292.4 330.5,290.9 312.5,295.7 296.8,299.4 		"/>
		<polyline class="st15" points="478,341.7 495.5,335.7 504.8,324.2 519.8,317.1 522.2,302.2 503.2,289.7 487,287.2 470.5,285.4 
			438.8,292.4 427,299.9 423,306.4 425.2,318.4 430.2,322.7 		"/>
	</g>
	<g id="olheiras" class="st2">
		<polygon class="st16" points="377,303.7 377,314.7 370,330.8 355,344.4 339,349.7 320.8,344.7 312.5,339.4 324.6,334.5 
			307.2,328.7 299,324.7 296.8,320.4 307.5,308.9 317.5,303.7 328.8,297.7 341,295.7 350.8,295.7 362.5,295.7 369.8,298.7 		"/>
		<polygon class="st16" points="427,310.9 430.2,322.7 440.2,335.2 454,338.9 478,341.7 482.8,336.4 486.8,332.9 479.5,327.9 
			482.8,318.7 488.5,312.9 498,315.2 504.8,310.9 493,300.9 472,293.7 454,292.4 441.5,295.7 431.2,299.7 427,304.7 		"/>
	</g>
	<g id="fundos" class="st2">
		<polygon id="fun" class="st17" points="309.5,318.7 315.4,321.3 319.9,322.9 325.3,322.9 337.4,322.9 347.8,322.9 356.1,318.7 
			359.9,314.6 357.2,310.1 345.7,305 338.7,303.1 328.5,303.1 320.8,306.1 312.7,310.9 309.5,314.4 		"/>
		<polygon class="st17" points="450.2,303.1 443.2,308.5 443.2,313 446.7,315.7 459.3,317.3 464.4,317.3 472.9,317.3 480.4,314.4 
			485.8,310.2 488.8,308.7 487.4,306.1 483.4,303.1 477,301.8 470.5,300.2 462,300.2 457.1,300.2 		"/>
	</g>
	<g id="iris" class="st2">
		<polygon class="st18" points="325.3,322.9 322.7,319.9 321.6,316.3 321.6,311.2 321.6,308.7 323.4,305 328.5,303.1 338.7,303.1 
			341,303.7 343.4,306 345.8,310.6 345.8,314.7 344.5,317.4 342.7,320.6 339.9,322.9 		"/>
		<polygon class="st18" points="455.3,301 453.5,305.3 453.5,308.7 453.5,311 454.4,313.7 456.6,317 466,317.4 472.9,317.3 
			476.6,315.9 477.9,312.2 479.2,307.4 477.9,304.4 475.4,301.4 470.5,300.2 457.1,300.2 		"/>
	</g>
	<g id="brilho_dos_olhos" class="st2">
		<polygon class="st19" points="332.4,310.1 332.4,311.7 332.4,313 333.7,313.6 335,313 335,311.1 335,310.1 333.7,309.4 		"/>
		<polygon class="st19" points="464.7,306.6 464.7,308.2 464.7,309.5 465.9,310.1 467.3,309.5 467.3,307.6 467.3,306.6 466,305.9 		
			"/>
	</g>
	<g id="lentes_1_" class="st20">
		<polygon class="st21" points="277.4,299.7 275.6,307.2 275.6,316.9 275.6,324.4 277.4,335.4 282.6,348.2 288.9,357.7 294.9,362.2 
			305.1,364.4 319.6,365.7 332.9,365.7 344.9,363.4 359.6,358.9 367.1,354.4 373.4,345.2 378.9,332.7 383.1,321.2 383.1,309.7 
			383.1,301.7 375.6,295.4 363.6,290.2 350.4,287.2 331.9,285.9 313.4,285.9 300.1,285.9 287.6,289.2 279.6,294.4 		"/>
		<polygon class="st21" points="423.6,325.8 419.4,317.2 419.4,307.7 423.6,297.9 433.4,291.2 443.6,287.2 455.4,284.2 464.9,282.4 
			477.6,282.4 490.4,282.4 501.9,282.4 511.4,283.7 519.1,285.9 526.4,290.9 529.6,298.7 531.4,311.2 530.1,322.2 528.9,331.4 
			525.9,342.7 521.1,350.9 515.6,356.7 505.9,360.2 492.4,362.2 481.9,363.7 474.1,363.7 463.1,363.7 452.4,360.9 443.1,356.9 
			436.6,349.2 431.4,340.9 426.9,333.4 		"/>
	</g>
	<g id="sobrancelhas" class="st2">
		<polygon class="st22" points="387,288.5 377,279.5 366,275.5 356.3,271.8 346.3,271.8 333.7,271.8 320,274.5 309.3,275.8 
			301.3,280.2 296.8,285.4 317.7,287.2 349.3,285.4 385,295.7 		"/>
		<polygon class="st22" points="427,293.5 423,287.5 427,278.8 440.2,274.8 449.8,268.5 462.7,268.5 477.7,268.5 493.3,271.8 
			503.3,276.5 506.7,281 482.8,281 458.7,283.8 		"/>
	</g>
	<g class="st2">
		<polygon class="st22" points="385,295.7 364.2,292.4 348,288.9 336.9,288.9 323.2,288.9 306.5,288.9 294.2,288.9 296.8,285.4 
			341.9,281.9 		"/>
		<polygon class="st22" points="429.5,292.4 446.5,288.8 459.2,285.9 475.5,283.8 486.8,283.8 499.5,283.2 506.7,281 472.6,275.9 
			441.8,284.2 		"/>
	</g>
	<polygon class="st13" points="286.6,290.4 300.2,286.4 329.5,286.4 340,286.4 350.5,287.7 363.8,290.7 375.8,295.9 383.2,302.2 
		423.8,298.4 433.5,291.7 446.4,287 458.1,284.2 465,282.9 477.8,282.9 495.7,282.9 508.3,283.8 519.2,286.4 526.5,291.4 
		526.5,281.1 485.5,275.9 471,277.2 456,279.7 438.5,283.9 428.3,286.9 421,288.3 412.9,289.6 399.8,290.4 389,289.1 380,286.9 
		367.7,284.7 353.2,282.2 319.7,281.4 308,281.2 297.7,282.9 288,283.7 281.3,289.1 	"/>
	<g class="st23">
		<polygon class="st24" points="309,319 313.1,311.8 323.9,305.4 330.8,302.8 345.2,305.3 358,311.8 359.5,310.8 341.6,302.1 
			329.6,301.4 317.9,306.9 312.2,311.2 305.9,316.6 		"/>
		<polygon class="st24" points="443.7,308.9 448.9,304 459.4,299.9 480.1,302.5 487.5,306.6 489.5,309.6 491.6,307.4 478,301.1 
			466.4,300 459.5,298.7 449.7,302.1 441.3,307.8 		"/>
	</g>
	<polygon class="st25" points="318.7,144.8 294.2,159.5 281.3,177.5 270.7,209.5 256,243.5 259.8,204.8 281.3,166.8 296.8,150.2 	
		"/>
	<polyline class="st25" points="315.3,129.5 291.3,136.8 271.3,153.5 256,177.5 248.7,201.5 245.3,216.8 259.8,186.2 269.7,167.8 
		284.7,150.2 300,141.5 313,137.8 321,132.5 	"/>
	<polyline class="st25" points="307.3,121.2 281.3,133.5 259.8,155.8 248.7,173.2 245.3,195.8 243.3,201.8 	"/>
	<polyline class="st25" points="326.8,140.5 341.9,119.8 368.7,105.8 395.3,98.2 424.7,94.8 436.7,94.8 409.3,105.8 381.7,112.2 
		423,107.8 444.7,98.5 458,101.8 427,114.2 413.3,129.5 401.7,147.2 	"/>
	<polyline class="st25" points="315.3,108.8 294,108.8 283.2,117.8 266,131.8 256,144.8 245.3,147.2 236.3,161.5 237.7,173.2 
		241.7,181.2 240.7,162.8 247,152.2 256,150.2 275.3,131.2 291,123.2 307.3,116.8 	"/>
	<polyline class="st25" points="234.7,171.5 226.3,201.8 230.5,221.5 226.3,241.8 230.5,259.8 234.7,238.8 238.7,223.5 232.5,212.2 
		238.7,188.5 	"/>
	<polyline class="st25" points="262.7,322.7 252.3,337.8 245.3,349.7 241.7,363.7 250,349.7 245,372.2 241.7,383.8 252.2,360.8 
		257.3,341.7 	"/>
	<polyline class="st25" points="324.3,129.5 331,113.5 340.7,104.5 356.7,92.2 374,82.2 390.7,77.5 409.3,75.8 429.3,75.8 
		451.3,78.8 465.3,83.5 484,89.8 504.7,101.2 496.3,102.7 473.3,94.8 448,86.2 425.3,82.8 404,85.2 377,92.8 359.3,102.7 
		345.7,110.5 	"/>
	<polyline class="st25" points="321,121.2 332,94.8 348,82.5 378,72.5 396,68.2 414.5,66.5 441.3,70.5 468,78.2 494.7,89.5 	"/>
	<polyline class="st25" points="321,100.5 333.3,83.5 349,73.8 372,68.2 398.1,62.2 419,62.2 442.7,66.5 474.3,75.8 492,85.5 	"/>
	<polyline class="st25" points="313,100.5 298.3,102.7 286,107.2 283.2,112.2 	"/>
	<polyline class="st25" points="421.3,138.8 430.3,125.8 450,112.2 471.3,102.7 492,104.2 510.7,106.3 521,112.2 533,129.5 
		521.7,121.2 504.7,112.2 477.2,113.8 462.3,118.5 452,123.5 	"/>
	<polyline class="st25" points="506,115.8 523.3,126.5 533,132.8 537.3,138.8 540.3,153.5 531.3,144.8 517,129.5 502.7,124.2 	"/>
	<polyline class="st25" points="484.7,148.5 498,153.5 512.3,170.2 526.5,189.2 531.4,205.2 531.5,221.2 521.5,200.5 513.7,188.5 
		497.3,168.5 484.7,157.5 	"/>
	<polyline class="st25" points="477.2,129.5 502.7,134.7 522.2,143.5 537.3,153.5 549.3,170.2 558,192.5 558,207.5 547.2,181.2 
		533,158.8 519.3,151.2 	"/>
	<polyline class="st25" points="500.7,145 516,160.5 540.3,184.8 547.2,198.2 548.7,211.5 547.2,216.8 	"/>
	<polyline class="st25" points="522.2,230.2 536.3,246.8 544.3,262.8 549,285.9 547.2,258.1 540.3,245.8 535.6,234.8 	"/>
	<polyline class="st25" points="561.3,205.8 566,226.8 566,254.5 563.7,285.9 561.3,298.5 561.3,268.5 561.3,243.5 553.3,221.2 	"/>
	<polyline class="st25" points="540.3,230.2 553.3,246.8 556.3,263.5 553.3,287.5 553.3,303.1 	"/>
	<polyline class="st25" points="553.3,329.2 553.3,341.7 556.3,349.7 563.3,363.7 548.3,343.5 549,326.3 	"/>
	<polyline class="st25" points="354.7,138.8 369,124.2 390.3,117.2 	"/>
	<polyline class="st25" points="382.3,140.8 396,123.2 412.7,117.2 	"/>
	<polyline class="st25" points="243.3,252.2 236.3,275.9 238,294.4 239.8,310.1 245.3,284.2 	"/>
	<polyline class="st25" points="254.7,258.1 254.7,281 252.2,310.1 	"/>
	<polyline class="st26" points="372.5,420.2 372.5,430.8 370.7,441.8 	"/>
	<polyline class="st26" points="361.3,423.5 355,433.8 355,443.5 	"/>
	<polyline class="st26" points="341,443.5 334.7,455.2 328,465.8 	"/>
	<polyline class="st26" points="326,473.8 320,485.5 320,496.5 	"/>
	<polyline class="st26" points="409.3,512.2 409.3,522.5 414.7,536.5 414.7,547.2 	"/>
	<polyline class="st26" points="401.8,541.5 403.3,533.5 400.3,527.5 400.3,514.5 400.3,508.5 401.8,504.2 	"/>
	<polyline class="st26" points="418,514.5 418,523.5 419.7,534.2 422.7,540.2 	"/>
	<polyline class="st26" points="428.3,514.5 430.3,527.3 429.3,540.2 432,544.8 	"/>
	<polyline class="st26" points="441.3,604.2 451.3,608.2 461,608.2 	"/>
	<line class="st26" x1="409.3" y1="606.2" x2="403.3" y2="616.5"/>
	<polyline class="st26" points="353,523.5 347.7,536.2 347.7,541.5 	"/>
	<polyline class="st26" points="398.8,485.2 398.6,491.5 392.7,496.5 	"/>
	<polyline class="st26" points="403.3,478.2 403.3,485.2 404.7,496.5 	"/>
	<polyline class="st26" points="409.3,479.8 409.3,487.3 409.3,493.8 409.3,497.9 409.3,501.9 	"/>
	<line class="st26" x1="414.7" y1="483.5" x2="420.3" y2="493.8"/>
	<polyline class="st26" points="467,488.7 475.7,499.8 475.7,506.2 	"/>
	<polyline class="st26" points="344,487.3 341,496.5 337.3,508.5 	"/>
	<polyline class="st26" points="363.7,514.5 358.2,525.5 358.2,537.2 	"/>
	<polyline class="st26" points="449,436.5 445,425.8 442.7,417.5 441.8,413.9 	"/>
	<polyline class="st26" points="453.5,436.5 453,433.5 449,427 449,420.2 449,417.5 	"/>
	<polyline class="st26" points="461,431 465,440.2 471.3,448.5 	"/>
	<polyline class="st26" points="473.7,460.2 478.3,468.8 487.3,478.2 	"/>
	<polyline class="st26" points="473.7,469.2 478.7,475.8 485.7,485.2 	"/>
	<polyline class="st26" points="383.2,418.6 383.1,426.8 380.7,436.5 	"/>
	<polyline class="st26" points="390.7,417.5 390.7,423.5 389,433.5 	"/>
	<polyline class="st26" points="366,423.5 363.7,432.4 363.7,439.8 	"/>
	<polyline class="st26" points="350.3,426.8 347.7,434.4 347.7,446.2 	"/>
	<polyline class="st26" points="344,429.2 340.7,433.5 333.5,436.5 	"/>
	<polyline class="st26" points="340.7,437.2 334.5,444.8 333.5,449.9 	"/>
	<polyline class="st26" points="344,449.9 337.6,462.4 334.5,469.5 	"/>
	<polyline class="st26" points="417.5,413.9 413,423.2 418,429.2 420.3,432.8 	"/>
	<polyline class="st26" points="422.7,412.8 418,421.2 424.5,431.6 	"/>
	<polyline class="st26" points="428.3,411.4 425.5,420.2 429.2,430.8 	"/>
	<polyline class="st26" points="433.3,412.8 433.3,420.2 434.5,430.8 	"/>
	<polyline class="st26" points="440.5,431.6 439.2,427 439.2,417.5 438,413.9 	"/>
	<polyline class="st26" points="454.8,422.2 456.8,432.8 459.2,439.8 	"/>
	<polyline class="st26" points="462.8,425.2 470.5,427.6 479.7,430.8 	"/>
	<polyline class="st26" points="466.2,429.2 473.7,435.2 479.7,437.2 	"/>
	<polyline class="st26" points="461,443.6 466.2,449.9 467,454.7 	"/>
	<polyline class="st26" points="412,487.3 414.7,493.8 416.2,501.9 	"/>
	<polyline class="st26" points="323,464.9 315.8,469.5 314.2,482.4 314.2,490.9 	"/>
	<polyline class="st26" points="331,473.8 329.8,483.5 329.8,494.6 329.8,501.9 	"/>
	<line class="st26" x1="382" y1="501.9" x2="369.8" y2="511.2"/>
	<polyline class="st26" points="389,501.9 374.8,513.2 369.8,528 369.8,537.2 	"/>
	<polyline class="st26" points="428.3,497.4 442.5,506.2 447.2,519.6 452.2,541.5 	"/>
	<polyline class="st26" points="449,501.9 458.8,516.2 460,532.5 	"/>
	<polyline class="st26" points="394,504.2 382,517.2 383.2,531.2 384.2,540.2 	"/>
	<polyline class="st26" points="426.8,506.6 433.2,513.2 437.2,528.8 437.2,538.4 	"/>
	<polyline class="st26" points="392.7,514.5 392.7,527.3 395.7,540.2 	"/>
	<polyline class="st26" points="358.2,549.2 360.9,573.2 371.5,590.2 	"/>
	<polyline class="st26" points="375.9,551.9 379.4,574.2 388,591.9 	"/>
	<polyline class="st26" points="392.7,550.2 392.7,571.6 403.5,594.9 	"/>
	<polyline class="st26" points="410.8,555.2 410.8,572.6 410.8,590.2 	"/>
	<polyline class="st26" points="422.7,552.9 430.2,574.7 426.8,593.4 	"/>
	<polyline class="st26" points="440.3,554.2 449,573.2 441.3,591.9 	"/>
	<polyline class="st26" points="454.5,551.9 464,575.4 454.5,591.9 	"/>
	<line class="st26" x1="380.5" y1="600.2" x2="389" y2="615.4"/>
	<polyline class="st26" points="420.3,600.2 414.7,613.9 414.1,618.9 	"/>
	<line class="st26" x1="432" y1="600.2" x2="428.3" y2="615.4"/>
	<line class="st26" x1="259.8" y1="363.7" x2="258.5" y2="372.2"/>
	<line class="st26" x1="262.7" y1="378.7" x2="261.8" y2="389.7"/>
	<line class="st26" x1="265.8" y1="394.9" x2="259.8" y2="405.2"/>
	<line class="st26" x1="267.6" y1="405.2" x2="261.8" y2="418.6"/>
	<line class="st26" x1="270.8" y1="416.2" x2="264.7" y2="429.2"/>
	<line class="st26" x1="275.6" y1="428" x2="269" y2="439.8"/>
	<line class="st26" x1="541" y1="355.7" x2="544.8" y2="364.2"/>
	<line class="st26" x1="538" y1="364.2" x2="542.9" y2="369.3"/>
	<line class="st26" x1="538" y1="374.4" x2="541" y2="380.2"/>
	<line class="st26" x1="534.2" y1="380.2" x2="540.5" y2="388.2"/>
	<polyline class="st26" points="533,388.2 537.4,393.8 540.5,396.8 	"/>
	<line class="st26" x1="531.4" y1="398" x2="536.7" y2="405.7"/>
	<line class="st26" x1="531.4" y1="407.9" x2="536.7" y2="412.8"/>
	<polyline class="st26" points="531.5,413.9 536.7,420.2 536.3,428 	"/>
	<line class="st26" x1="527.8" y1="425.2" x2="534.1" y2="432.8"/>
	<polyline class="st26" points="526.2,432.8 534.1,444.8 536.7,453.5 	"/>
	<polyline class="st26" points="524,443.6 528.8,452.4 534.1,461.9 	"/>
	<polyline class="st26" points="523,455.3 531.4,467.4 532.8,475.9 	"/>
	<polyline class="st26" points="516.8,463.2 524,471.4 526.2,483.5 	"/>
	<polyline class="st26" points="501.8,465.6 510.8,473.3 520.8,490.8 523,494.6 	"/>
	<polyline class="st26" points="495,469.5 503.5,481.2 512.4,498.9 	"/>
	<polyline class="st26" points="490.2,490.8 497.5,501.9 498.7,511.2 	"/>
	<polyline class="st26" points="509.3,505.5 516.8,520.9 516.8,527.3 	"/>
	<polyline class="st26" points="521.5,504.2 523,509.4 523,514.5 	"/>
	<polyline class="st26" points="484.5,511.2 487.3,530.7 485.9,540.2 	"/>
	<polyline class="st26" points="472.5,525.7 470.2,558.9 472.5,566.7 	"/>
	<polyline class="st26" points="504.8,523.5 509.3,538.4 508,552.9 	"/>
	<polyline class="st26" points="517.8,538.4 517.8,547.2 515,559.9 	"/>
	<polyline class="st26" points="498.7,541.5 496.2,555.2 490.2,566.7 	"/>
	<polyline class="st26" points="504.8,563.2 498.7,573.2 490.2,583.9 	"/>
	<polyline class="st26" points="480.5,554.2 480.5,571.9 477.5,581.4 	"/>
	<line class="st26" x1="470.2" y1="583.9" x2="468" y2="594.9"/>
	<line class="st26" x1="481.8" y1="587.2" x2="479" y2="596.7"/>
	<polyline class="st26" points="406.3,549.2 400.3,563.2 400.3,566.7 	"/>
	<polyline class="st26" points="433.5,561.7 437.2,571.9 435.4,577.4 	"/>
	<polyline class="st26" points="460,498.9 465.8,505.5 467,512.2 	"/>
	<polyline class="st26" points="495,519.6 497.5,528.8 496.2,534.7 	"/>
	<polyline class="st26" points="368.8,498.9 359.2,506.6 353,511.2 	"/>
	<polyline class="st26" points="353,496.5 350.3,501 349,505.6 	"/>
	<polyline class="st26" points="340.7,475.7 337.3,481.4 337.3,488.7 	"/>
	<polyline class="st26" points="368.8,556.9 368.8,570.7 373.2,581.4 	"/>
	<polyline class="st26" points="377,532.5 377,540.2 380.5,547.2 382,552.9 	"/>
	<line class="st26" x1="364.8" y1="541.5" x2="364.8" y2="547.2"/>
	<polyline class="st26" points="343.2,514.5 338.5,529.7 340.7,546.2 341.8,554.2 	"/>
	<polyline class="st26" points="349,552.9 349,569.7 353.8,581.4 	"/>
	<polyline class="st26" points="347.7,585.7 353,594.9 363.7,608.2 	"/>
	<polyline class="st26" points="329.8,549.2 329.5,563.2 332.2,577.4 335.8,581.4 	"/>
	<polyline class="st26" points="339.5,563.2 339.5,569.2 342,573.2 	"/>
	<polyline class="st26" points="331,512.2 329.5,520.7 326,529.7 328.5,535.4 	"/>
	<polyline class="st26" points="321.8,504.2 318.6,514.5 318.6,525.8 	"/>
	<polyline class="st26" points="315.8,532.5 315.8,541.5 318.6,550.2 	"/>
	<polyline class="st26" points="312.5,554.2 314.2,565.3 320,577.4 	"/>
	<polyline class="st26" points="329.5,588.2 332.6,596.9 340.7,602.2 	"/>
	<polyline class="st26" points="304,475.7 304,490.9 306.2,501.9 	"/>
	<polyline class="st26" points="300.2,511.2 304,527.3 305.1,540.2 	"/>
	<polyline class="st26" points="293.2,482.2 292,494.6 292,506.6 	"/>
	<polyline class="st26" points="264.7,438.2 264.7,443.6 267.6,449.9 	"/>
	<polyline class="st26" points="278,438.2 274.1,446.2 275.6,453 	"/>
	<polyline class="st26" points="282.8,443.5 281,449.9 281,454.7 	"/>
	<polyline class="st26" points="291,461.2 291,467.2 293.2,475.7 	"/>
	<polyline class="st26" points="275.6,459.7 272.3,468.4 279.2,483.5 	"/>
	<polyline class="st26" points="284.3,469.5 284.3,482.2 285.5,490.8 	"/>
	<polyline class="st26" points="286.5,508.5 284.3,514.5 290.3,518.6 	"/>
	<polyline class="st26" points="295.5,527.3 293.2,532.5 297.8,540.2 	"/>
	<polyline class="st26" points="312.5,501 311.2,508.5 311.2,515 	"/>
	<polyline class="st26" points="304,555.2 304,563.2 306.2,567.2 	"/>
	<polyline class="st26" points="371,604.2 375.9,616.5 379.4,617.7 	"/>
	<polyline class="st26" points="353,609.6 358.2,614.2 364.8,615.4 	"/>
	<line class="st26" x1="395.7" y1="596.7" x2="395.7" y2="606.2"/>
	<polyline class="st26" points="420.3,573.6 420.3,579.7 419.2,588.2 	"/>
	<polyline class="st26" points="433.5,587.2 432,591.9 432,595.2 	"/>
	<line class="st26" x1="414.7" y1="591.9" x2="414.1" y2="600.2"/>
	<line class="st26" x1="395.7" y1="613.4" x2="395.7" y2="623.7"/>
	<polyline class="st26" points="450.4,561.7 453.2,569.7 452.2,580.9 	"/>
	<polyline class="st26" points="458,537.2 459.2,544.8 461,549.2 	"/>
	<polyline class="st26" points="441.3,525.7 443,540.2 446,550.2 	"/>
	<line class="st26" x1="426.4" y1="546.2" x2="430.2" y2="552.9"/>
	<line class="st26" x1="417.2" y1="555.2" x2="417.5" y2="561.7"/>
	<polyline class="st26" points="386,565.3 386,572.7 389,577.4 	"/>
	<line class="st26" x1="403.6" y1="572.6" x2="404.7" y2="577.4"/>
	<polyline class="st26" points="472.5,515 477.5,523.5 479.7,534.7 479,538.4 	"/>
	<polyline class="st26" points="491.8,544.8 489.2,552.9 487.3,558.4 	"/>
	<line class="st26" x1="481.8" y1="542.1" x2="480.5" y2="547.2"/>
	<polyline class="st26" points="480.5,490.9 484.5,504.2 489.5,506.6 	"/>
	<line class="st26" x1="467" y1="477.2" x2="472.5" y2="483.5"/>
	<line class="st26" x1="493.5" y1="482.2" x2="498.7" y2="488.8"/>
	<polyline class="st26" points="467,564.4 469.1,571.3 468,577.4 466.2,580.9 	"/>
	<polyline class="st26" points="461,590.2 455.8,596.9 453.2,600.2 	"/>
	<line class="st26" x1="437.2" y1="609.6" x2="443.7" y2="615.4"/>
	<polyline class="st26" points="475.7,591.2 472.5,596.9 470.2,601.4 	"/>
	<line class="st26" x1="464" y1="596.9" x2="460" y2="602.2"/>
	<polyline class="st26" points="449,587.2 447.2,593.4 447.2,596.3 444.6,598.2 	"/>
	<polyline class="st26" points="422.7,498.9 426.4,501 430.2,505.1 435.4,509.3 	"/>
	<polyline class="st26" points="419.8,506.2 422.7,512.2 422.7,519.5 	"/>
	<polyline class="st26" points="414.1,506.6 414.1,510.8 414.1,514.5 	"/>
	<line class="st26" x1="460" y1="480.3" x2="461" y2="487.3"/>
	<polyline class="st26" points="476.1,454.7 480.4,460.2 487.3,465.8 	"/>
	<polyline class="st26" points="377,421 377,426.8 377,433.5 	"/>
	<polyline class="st26" points="393.7,413.9 398.1,420.2 397,426.8 395.9,429.2 	"/>
	<polyline class="st26" points="300.2,467.4 300.2,473.8 300.2,479.8 	"/>
	<line class="st26" x1="297.8" y1="498.7" x2="302.7" y2="508.5"/>
	<line class="st26" x1="282.8" y1="496.5" x2="282.8" y2="503.6"/>
	<line class="st26" x1="288.5" y1="452.4" x2="282.8" y2="463.2"/>
	<polyline class="st26" points="260.2,376.2 259.1,382.2 258.5,387.1 	"/>
	<line class="st26" x1="260.2" y1="393.8" x2="258.5" y2="398"/>
	<line class="st26" x1="262.7" y1="406.9" x2="259.8" y2="411.4"/>
	<line class="st26" x1="272.3" y1="425.2" x2="269" y2="429.2"/>
	<line class="st26" x1="269" y1="410.7" x2="265.8" y2="418.6"/>
	<polyline class="st26" points="261.8,345.9 260.2,349.7 259.4,355.2 	"/>
	<line class="st26" x1="263.1" y1="357.2" x2="259.4" y2="360.2"/>
	<line class="st26" x1="263.8" y1="367.9" x2="262.2" y2="372.2"/>
	<line class="st26" x1="544.8" y1="355.7" x2="548.3" y2="359.9"/>
	<polyline class="st26" points="544.8,366.8 546.6,369.3 548.3,372.2 	"/>
	<polyline class="st26" points="535.8,369.3 541,372.9 544.8,376.2 	"/>
	<line class="st26" x1="529.1" y1="416.4" x2="530.9" y2="421"/>
	<polyline class="st26" points="529.1,473.3 529.1,480.3 531.7,485.5 	"/>
	<line class="st26" x1="509.3" y1="461.9" x2="515" y2="469.5"/>
	<line class="st26" x1="516.8" y1="455.3" x2="522.2" y2="461.9"/>
	<polyline class="st27" points="232.5,294.7 236.3,288.8 235.4,295 235.2,302.2 240.4,297 238.3,298.7 237.2,304.1 237.2,315.2 
		240.4,307.3 237.2,315.2 241.2,313.6 238.7,320.4 245.8,316 237.5,271.8 230.5,234.7 226.3,241.8 229.4,255.1 229.5,258.1 
		229.5,271.8 227.7,283.8 233.3,279.2 232.5,271.8 231.2,282.9 232.5,294.7 	"/>
	<polygon class="st27" points="249.2,347.7 244.9,351.2 244.2,354.1 242.2,361.7 245.3,357.6 248.5,353.8 	"/>
	<path class="st27" d="M229.4,289.1"/>
	<polygon class="st27" points="245.1,371.7 243.1,378.7 253.1,369.3 246.5,372.8 	"/>
	<polygon class="st27" points="240.4,366.8 246.4,362.9 246.4,357.8 244.6,358.7 	"/>
	<polygon class="st27" points="236.1,297.6 235.2,302.2 236.1,306.9 237.1,312.1 237.2,315.2 239.5,310.1 238.8,297.3 	"/>
	<path class="st27" d="M242.2,344.2"/>
	<polygon class="st27" points="242.4,336.6 242.4,340.3 240.4,345.5 248.5,340.5 250.3,330.3 	"/>
	<polygon class="st27" points="240.2,355.9 240.8,359.1 240.4,366.8 247.1,354.2 245.7,350 	"/>
	<polygon class="st27" points="250.3,371 253.1,370.1 252.2,367.9 249.8,369.5 	"/>
	<polygon class="st27" points="540.3,158 548.7,168.5 554.8,181.9 557.3,190.8 559.7,195.2 558.8,200.9 544.8,170.4 528.2,152.4 	
		"/>
	<polygon class="st27" points="561.3,205.8 558.8,200.9 559.7,220.2 563.8,233.9 563.8,251.7 559.7,282.9 559.7,296.7 553.3,303.1 
		553.3,308.8 561.7,309.2 561.3,292.4 563.7,285.9 564.7,272.7 565.5,260.9 565.8,255.1 565.8,244.9 566,232.9 566,226.7 
		563.3,214.8 	"/>
	<polygon class="st27" points="557.4,291 561.4,293.3 562.8,292.2 562.9,288 	"/>
</g>
</svg>
