<svg width="100" height="47" viewBox="0 0 100 47" fill="none" xmlns="http://www.w3.org/2000/svg">
<path d="M2 45.5L31 2L98.5 1L90 22.5H70.5V32L2 45.5Z" fill="#28A8E7" stroke="#28A8E7"/>
<path d="M55.4934 29.93C54.8438 30.0607 54.2068 30.0652 53.5825 29.9433C52.9673 29.8196 52.4032 29.5952 51.8903 29.27C51.3756 28.9357 50.9385 28.5143 50.5791 28.0059C50.2179 27.4883 49.9709 26.9001 49.8383 26.2414C49.7076 25.5917 49.7086 24.9584 49.8415 24.3414C49.9835 23.7225 50.2235 23.1649 50.5615 22.6684C50.9068 22.1609 51.3392 21.7312 51.8586 21.3791C52.3853 21.016 52.9735 20.7691 53.6231 20.6383C54.2727 20.5076 54.9052 20.504 55.5203 20.6277C56.1446 20.7496 56.7142 20.9777 57.229 21.312C57.7529 21.6445 58.1954 22.0695 58.5567 22.5871C58.9271 23.1028 59.1776 23.6855 59.3084 24.3351C59.441 24.9939 59.4363 25.6327 59.2943 26.2516C59.1596 26.8595 58.9196 27.4171 58.5743 27.9246C58.2271 28.4229 57.7892 28.849 57.2607 29.2029C56.7321 29.5569 56.143 29.7992 55.4934 29.93ZM53.9104 22.0657C53.4621 22.1559 53.0633 22.3267 52.714 22.5779C52.3628 22.8199 52.0703 23.1168 51.8365 23.4685C51.6118 23.8184 51.4567 24.2067 51.3712 24.6333C51.2838 25.0507 51.2853 25.4836 51.3755 25.9319C51.4658 26.3803 51.6328 26.7846 51.8767 27.1449C52.1206 27.5052 52.4138 27.8032 52.7564 28.0389C53.0972 28.2654 53.4772 28.4269 53.8965 28.5234C54.3231 28.6089 54.7605 28.6066 55.2089 28.5163C55.6572 28.4261 56.0615 28.259 56.4218 28.0151C56.7803 27.7621 57.0728 27.4652 57.2993 27.1244C57.524 26.7746 57.6791 26.3863 57.7646 25.9597C57.8501 25.5331 57.8477 25.0957 57.7575 24.6473C57.6673 24.199 57.5011 23.7992 57.2591 23.4481C57.0152 23.0878 56.7174 22.7907 56.3656 22.5569C56.023 22.3212 55.6385 22.1606 55.2119 22.0751C54.7926 21.9786 54.3588 21.9755 53.9104 22.0657Z" fill="#F5F5F5"/>
<path d="M40.0013 21.7379L40.6036 24.7299C40.7424 24.5211 40.9051 24.3122 41.0915 24.1033C41.2761 23.8853 41.4919 23.68 41.7387 23.4875C41.9856 23.295 42.2655 23.1244 42.5783 22.9758C42.8911 22.8271 43.2488 22.7123 43.6514 22.6312C44.2919 22.5023 44.9243 22.4988 45.5486 22.6207C46.1729 22.7425 46.7425 22.9706 47.2572 23.3049C47.7811 23.6374 48.2237 24.0625 48.5849 24.58C48.9535 25.0866 49.2031 25.6647 49.3339 26.3143C49.4647 26.964 49.459 27.5982 49.317 28.2171C49.1842 28.8341 48.9405 29.3972 48.5861 29.9065C48.2407 30.414 47.8047 30.8493 47.278 31.2123C46.7586 31.5644 46.1741 31.8058 45.5244 31.9366C44.8748 32.0674 44.2424 32.0709 43.6272 31.9472C43.0102 31.8143 42.4443 31.5807 41.9296 31.2464C41.4148 30.9121 40.9768 30.4861 40.6156 29.9686C40.2543 29.451 40.0083 28.8674 39.8776 28.2178L38.6289 22.0142L40.0013 21.7379ZM45.2399 30.523C45.6882 30.4327 46.0871 30.262 46.4364 30.0108C46.7948 29.7577 47.0864 29.4563 47.3111 29.1064C47.5431 28.7455 47.7019 28.3518 47.7874 27.9252C47.8729 27.4986 47.8714 27.0657 47.783 26.6265C47.6928 26.1782 47.5266 25.7784 47.2846 25.4273C47.0407 25.067 46.7429 24.7699 46.3911 24.5361C46.0486 24.3004 45.664 24.1398 45.2374 24.0543C44.8181 23.9578 44.3843 23.9546 43.9359 24.0449C43.4876 24.1351 43.0842 24.3068 42.7257 24.5598C42.3746 24.8019 42.0867 25.0978 41.862 25.4477C41.6373 25.7976 41.4822 26.1859 41.3967 26.6125C41.3112 27.039 41.3126 27.4719 41.401 27.9111C41.4913 28.3595 41.6583 28.7638 41.9022 29.1241C42.1461 29.4844 42.4394 29.7824 42.7819 30.0181C43.1245 30.2538 43.5054 30.4199 43.9247 30.5163C44.3532 30.611 44.7916 30.6132 45.2399 30.523Z" fill="#F5F5F5"/>
<path d="M40.5256 32.9428C39.876 33.0736 39.2399 33.0826 38.6175 32.9699C37.9931 32.848 37.4199 32.6254 36.8979 32.3021C36.385 31.9769 35.9442 31.561 35.5757 31.0545C35.2053 30.5387 34.9538 29.9515 34.8212 29.2927L33.8819 24.6263L35.4328 24.3141L36.3693 28.9668C36.4596 29.4151 36.6266 29.8194 36.8705 30.1797C37.1217 30.529 37.4232 30.8206 37.7749 31.0545C38.1248 31.2792 38.514 31.4389 38.9424 31.5335C39.369 31.619 39.8019 31.6176 40.2411 31.5292L40.996 31.3772L41.2805 32.7909L40.5256 32.9428Z" fill="#F5F5F5"/>
<path d="M33.7408 34.3085L33.4535 32.8811C33.1485 33.4471 32.718 33.9098 32.162 34.2693C31.6042 34.6196 31.0187 34.8564 30.4057 34.9798C29.7652 35.1088 29.1328 35.1123 28.5085 34.9904C27.8842 34.8686 27.31 34.6414 26.7861 34.3089C26.2714 33.9746 25.8297 33.5541 25.4612 33.0475C25.0999 32.53 24.8539 31.9464 24.7232 31.2967C24.5924 30.6471 24.5935 30.0138 24.7263 29.3968C24.8683 28.7779 25.112 28.2148 25.4573 27.7073C25.8118 27.198 26.2487 26.7673 26.7681 26.4152C27.2948 26.0522 27.883 25.8052 28.5326 25.6745C29.1823 25.5437 29.8156 25.5448 30.4326 25.6776C31.0478 25.8013 31.6128 26.0303 32.1275 26.3647C32.6423 26.699 33.0803 27.1249 33.4415 27.6425C33.8027 28.1601 34.0487 28.7437 34.1795 29.3933L35.1133 34.0322L33.7408 34.3085ZM28.8172 27.0881C28.3688 27.1784 27.97 27.3491 27.6207 27.6003C27.2714 27.8515 26.9808 28.1575 26.7488 28.5184C26.5149 28.8701 26.3552 29.2593 26.2697 29.6859C26.1842 30.1125 26.1857 30.5454 26.2741 30.9846C26.3643 31.4329 26.5314 31.8372 26.7753 32.1975C27.0173 32.5487 27.3096 32.8421 27.6522 33.0778C28.004 33.3116 28.3895 33.4768 28.8087 33.5733C29.2353 33.6588 29.6728 33.6564 30.1212 33.5662C30.5695 33.4759 30.9692 33.3098 31.3204 33.0677C31.6788 32.8147 31.9704 32.5132 32.1951 32.1633C32.4198 31.8135 32.5749 31.4252 32.6604 30.9986C32.7459 30.572 32.7445 30.1391 32.6561 29.6999C32.5658 29.2516 32.3988 28.8473 32.1549 28.487C31.911 28.1267 31.6177 27.8287 31.2752 27.593C30.9326 27.3573 30.5471 27.1921 30.1186 27.0975C29.6993 27.001 29.2655 26.9979 28.8172 27.0881Z" fill="#F5F5F5"/>
<path d="M81.4908 12.4563C80.8412 12.5871 80.2051 12.5961 79.5826 12.4834C78.9583 12.3615 78.3851 12.1389 77.863 11.8156C77.3501 11.4904 76.9094 11.0745 76.5408 10.5679C76.1704 10.0522 75.9189 9.46497 75.7863 8.80619L74.847 4.13978L76.3979 3.82761L77.3345 8.48029C77.4247 8.92863 77.5918 9.33294 77.8357 9.69323C78.0869 10.0425 78.3883 10.3341 78.7401 10.568C79.09 10.7927 79.4791 10.9524 79.9076 11.047C80.3342 11.1325 80.767 11.1311 81.2062 11.0427L81.9611 10.8907L82.2457 12.3044L81.4908 12.4563Z" fill="#F5F5F5"/>
<path d="M71.3133 14.5049C70.6728 14.6338 70.045 14.6364 69.4298 14.5127C68.8219 14.378 68.2652 14.1426 67.7596 13.8064C67.2631 13.4684 66.8352 13.0452 66.4758 12.5368C66.1237 12.0174 65.8841 11.442 65.757 10.8107C65.6336 10.1977 65.6338 9.58355 65.7575 8.96838C65.8794 8.34405 66.1221 7.77632 66.4857 7.26518L66.483 7.25146C66.8867 6.65607 67.331 6.21439 67.8157 5.92642L67.8294 5.92365C68.358 5.56973 68.9333 5.33015 69.5555 5.20491C70.013 5.11282 70.4752 5.0912 70.942 5.14004C71.407 5.17973 71.8519 5.28535 72.2768 5.45688C72.7089 5.61742 73.111 5.84115 73.4829 6.12806C73.8622 6.40399 74.1893 6.72848 74.4643 7.10155L71.9649 12.9885L76.9195 11.9912L77.1875 13.3225L71.3133 14.5049ZM69.829 13.1614L70.0816 13.2105L72.6332 7.29875C72.2411 6.95878 71.8043 6.72777 71.3227 6.60573C70.8393 6.47454 70.3414 6.46052 69.829 6.56365C69.3715 6.65574 68.9636 6.82831 68.6051 7.08135C68.2467 7.33439 67.9514 7.64135 67.7194 8.00223C67.4856 8.35396 67.3268 8.7477 67.2431 9.18344C67.1595 9.61918 67.1628 10.0612 67.253 10.5096C67.3175 10.8298 67.4268 11.1363 67.5809 11.4289C67.735 11.7216 67.9257 11.9831 68.153 12.2135C68.3802 12.4438 68.6349 12.6449 68.917 12.8166C69.1972 12.9791 69.5012 13.0941 69.829 13.1614Z" fill="#F5F5F5"/>
<path d="M64.1951 15.9377L62.3275 6.65982L63.9745 6.3283L65.842 15.6062L64.1951 15.9377Z" fill="#F5F5F5"/>
<path d="M57.7348 17.2381L56.7928 12.558C56.6601 11.8992 56.6612 11.2659 56.7959 10.658C56.9379 10.0391 57.1825 9.48056 57.5296 8.98226C57.886 8.48211 58.3284 8.05508 58.8569 7.70115C59.3855 7.34722 59.97 7.1058 60.6105 6.97688L61.6948 6.75863L61.9876 8.21345L60.9308 8.42617C60.4916 8.51458 60.0919 8.68073 59.7316 8.92462C59.3804 9.16667 59.0879 9.46356 58.8541 9.81529C58.6275 10.156 58.4669 10.5406 58.3723 10.969C58.2849 11.3865 58.2855 11.8148 58.3739 12.254L59.3131 16.9204L57.7348 17.2381Z" fill="#F5F5F5"/>
<path d="M46.8268 8.12337L47.429 11.1154C47.5679 10.9065 47.7305 10.6977 47.917 10.4888C48.1016 10.2707 48.3173 10.0654 48.5642 9.87293C48.8111 9.68043 49.0909 9.50985 49.4037 9.3612C49.7165 9.21255 50.0742 9.09771 50.4768 9.01667C51.1173 8.88775 51.7497 8.88422 52.374 9.00608C52.9984 9.12795 53.5679 9.35604 54.0827 9.69037C54.6066 10.0229 55.0492 10.4479 55.4104 10.9654C55.7789 11.472 56.0286 12.0501 56.1593 12.6998C56.2901 13.3494 56.2845 13.9836 56.1425 14.6025C56.0096 15.2195 55.766 15.7827 55.4115 16.292C55.0662 16.7994 54.6302 17.2347 54.1034 17.5978C53.584 17.9498 52.9995 18.1913 52.3499 18.322C51.7003 18.4528 51.0678 18.4563 50.4527 18.3326C49.8357 18.1998 49.2698 17.9662 48.755 17.6318C48.2402 17.2975 47.8022 16.8716 47.441 16.354C47.0798 15.8364 46.8338 15.2528 46.703 14.6032L45.4543 8.39963L46.8268 8.12337ZM52.0653 16.9084C52.5137 16.8181 52.9125 16.6474 53.2618 16.3962C53.6202 16.1432 53.9118 15.8417 54.1365 15.4918C54.3686 15.1309 54.5273 14.7372 54.6128 14.3106C54.6983 13.884 54.6969 13.4511 54.6085 13.0119C54.5182 12.5636 54.3521 12.1639 54.11 11.8127C53.8661 11.4524 53.5683 11.1553 53.2166 10.9215C52.874 10.6858 52.4894 10.5252 52.0628 10.4397C51.6435 10.3432 51.2097 10.3401 50.7614 10.4303C50.313 10.5206 49.9096 10.6922 49.5512 10.9452C49.2001 11.1873 48.9121 11.4833 48.6874 11.8332C48.4627 12.183 48.3076 12.5713 48.2221 12.9979C48.1366 13.4245 48.1381 13.8574 48.2265 14.2966C48.3167 14.7449 48.4838 15.1492 48.7277 15.5095C48.9716 15.8698 49.2648 16.1678 49.6074 16.4035C49.95 16.6392 50.3309 16.8053 50.7502 16.9018C51.1786 16.9964 51.617 16.9986 52.0653 16.9084Z" fill="#F5F5F5"/>
<path d="M45.6337 19.6739L45.3464 18.2466C45.0414 18.8125 44.6109 19.2752 44.0549 19.6347C43.4971 19.985 42.9116 20.2218 42.2986 20.3452C41.6581 20.4742 41.0257 20.4777 40.4014 20.3558C39.777 20.234 39.2029 20.0068 38.679 19.6743C38.1642 19.34 37.7226 18.9195 37.3541 18.413C36.9928 17.8954 36.7468 17.3118 36.6161 16.6622C36.4853 16.0125 36.4863 15.3792 36.6192 14.7622C36.7612 14.1433 37.0049 13.5802 37.3502 13.0727C37.7047 12.5634 38.1416 12.1327 38.661 11.7806C39.1877 11.4176 39.7759 11.1706 40.4255 11.0399C41.0751 10.9091 41.7085 10.9102 42.3255 11.043C42.9407 11.1667 43.5056 11.3957 44.0204 11.7301C44.5352 12.0644 44.9732 12.4903 45.3344 13.0079C45.6956 13.5255 45.9416 14.1091 46.0724 14.7587L47.0062 19.3977L45.6337 19.6739ZM40.7101 12.4535C40.2617 12.5438 39.8629 12.7145 39.5136 12.9657C39.1643 13.2169 38.8736 13.5229 38.6416 13.8838C38.4078 14.2355 38.2481 14.6247 38.1626 15.0513C38.0771 15.4779 38.0785 15.9108 38.1669 16.35C38.2572 16.7983 38.4243 17.2026 38.6682 17.5629C38.9102 17.9141 39.2025 18.2075 39.5451 18.4432C39.8968 18.677 40.2823 18.8422 40.7016 18.9387C41.1282 19.0242 41.5657 19.0218 42.014 18.9316C42.4624 18.8414 42.8621 18.6752 43.2132 18.4332C43.5717 18.1801 43.8633 17.8786 44.088 17.5288C44.3127 17.1789 44.4678 16.7906 44.5533 16.364C44.6388 15.9374 44.6373 15.5046 44.5489 15.0654C44.4587 14.617 44.2916 14.2127 44.0477 13.8524C43.8038 13.4921 43.5106 13.1941 43.168 12.9584C42.8254 12.7227 42.4399 12.5576 42.0115 12.4629C41.5922 12.3664 41.1584 12.3633 40.7101 12.4535Z" fill="#F5F5F5"/>
<path d="M31.9475 17.2592L35.9002 16.4635L35.9802 16.7901C36.111 17.4398 36.1054 18.074 35.9633 18.6929C35.8305 19.3099 35.5868 19.8731 35.2324 20.3824C34.8852 20.8807 34.4473 21.3068 33.9188 21.6607C33.3902 22.0146 32.8057 22.256 32.1652 22.385C30.8934 22.641 29.686 22.4128 28.5429 21.7003C27.4493 20.9969 26.7726 20.0002 26.5129 18.7101C26.3803 18.0513 26.3804 17.4134 26.5133 16.7964C26.6461 16.1794 26.8807 15.6181 27.2168 15.1124C27.5622 14.605 27.9991 14.1743 28.5276 13.8204C29.0562 13.4664 29.6453 13.2241 30.2949 13.0933C30.7707 12.9976 31.2475 12.9778 31.7253 13.0339C32.2104 13.0791 32.6709 13.1911 33.1068 13.3699C33.5518 13.5469 33.9621 13.788 34.3377 14.0932C34.7115 14.3893 35.0341 14.7385 35.3055 15.1409L33.6036 15.4834C33.2242 15.0647 32.7608 14.7724 32.2132 14.6065C31.6749 14.4388 31.1312 14.4102 30.5822 14.5207C30.1339 14.611 29.7305 14.7826 29.3721 15.0356C29.0209 15.2777 28.733 15.5737 28.5083 15.9235C28.2836 16.2734 28.1285 16.6617 28.043 17.0883C27.9556 17.5057 27.9571 17.9386 28.0473 18.3869C28.1376 18.8353 28.3001 19.2405 28.5348 19.6027C28.7787 19.9629 29.0719 20.2609 29.4145 20.4966C29.7644 20.7213 30.1481 20.8774 30.5655 20.9647C30.9921 21.0502 31.4296 21.0478 31.8779 20.9576C32.2165 20.8895 32.5311 20.7737 32.822 20.6105C33.122 20.4454 33.3862 20.2446 33.6147 20.0082C33.8505 19.7608 34.0424 19.4842 34.1903 19.1783C34.3382 18.8725 34.4348 18.5483 34.4801 18.206L32.2293 18.6591L31.9475 17.2592Z" fill="#F5F5F5"/>
</svg>
