<svg width="100" height="47" viewBox="0 0 100 47" fill="none" xmlns="http://www.w3.org/2000/svg">
<path fill-rule="evenodd" clip-rule="evenodd" d="M31 2L2 45.5L70.5 32V22.5H90L98.5 1L31 2ZM34.3338 17.1123L31.2242 17.7383L33.6976 13.9517C32.7204 13.313 31.5116 13.0392 30.2754 13.288C29.0391 13.5368 28.0304 14.2571 27.3764 15.2241C26.7377 16.2014 26.4638 17.4102 26.7127 18.6464C26.9615 19.8826 27.6817 20.8913 28.6488 21.5453C29.626 22.1841 30.8349 22.4579 32.0711 22.2091C33.3073 21.9602 34.316 21.24 34.97 20.273L34.3338 17.1123ZM35.3622 21.5466L44.2833 19.7509L38.027 11.7277L35.3622 21.5466ZM50.6246 16.1538C50.3783 14.9304 49.1842 14.1364 47.948 14.3852C49.1842 14.1364 49.9756 12.9295 49.7293 11.706C49.4805 10.4698 48.2838 9.66312 47.0476 9.91195L43.1223 10.7021L44.918 19.6231L48.8433 18.833C50.0795 18.5842 50.8734 17.39 50.6246 16.1538ZM56.2571 12.7127C57.4933 12.4639 58.2847 11.257 58.0384 10.0335C57.7896 8.7973 56.5929 7.99059 55.3567 8.23942L50.055 9.30658L51.8507 18.2277L59.3827 16.7116L56.2571 12.7127ZM60.165 16.5541L64.3196 15.7178L62.5239 6.79674L58.3692 7.63303L60.165 16.5541ZM71.3422 10.7636L70.2315 5.2453L63.2858 6.64338L65.0815 15.5645L72.0272 14.1664L71.4731 11.4136L67.8154 12.1498L67.6719 11.5024L71.3422 10.7636ZM79.6084 8.31736L76.1291 9.01768L75.1697 4.25128L71.0151 5.08757L72.8108 14.0086L80.4446 12.472L79.6084 8.31736ZM29.9785 34.871L38.8996 33.0753L32.6433 25.0521L29.9785 34.871ZM46.4593 27.2306L42.9801 27.9309L42.0207 23.1645L37.866 24.0008L39.6617 32.9218L47.2956 31.3852L46.4593 27.2306ZM53.7821 27.7589C53.5359 26.5355 52.3417 25.7415 51.1055 25.9903C52.3417 25.7415 53.1331 24.5346 52.8868 23.3112C52.638 22.0749 51.4413 21.2682 50.2051 21.5171L46.2798 22.3072L48.0755 31.2282L52.0008 30.4381C53.237 30.1893 54.031 28.9951 53.7821 27.7589ZM54.1104 25.3722C54.6081 27.8446 56.9964 29.4326 59.4688 28.9349C61.9285 28.4398 63.5291 26.0489 63.0315 23.5765C62.5364 21.1169 60.1327 19.5187 57.6731 20.0138C55.2007 20.5115 53.6153 22.9126 54.1104 25.3722Z" fill="black"/>
<path d="M2 45.5L1.58397 45.2226L0.917043 46.223L2.09668 45.9906L2 45.5ZM31 2L30.9926 1.50005L30.7298 1.50395L30.584 1.72265L31 2ZM70.5 32L70.5967 32.4906L71 32.4111V32H70.5ZM70.5 22.5V22H70V22.5H70.5ZM90 22.5V23H90.34L90.465 22.6838L90 22.5ZM98.5 1L98.965 1.18383L99.2397 0.488987L98.4926 0.500055L98.5 1ZM31.2242 17.7383L30.8056 17.4648L30.1529 18.4639L31.3228 18.2284L31.2242 17.7383ZM34.3338 17.1123L34.824 17.0137L34.7253 16.5235L34.2351 16.6222L34.3338 17.1123ZM33.6976 13.9517L34.1162 14.2252L34.3896 13.8067L33.9712 13.5332L33.6976 13.9517ZM30.2754 13.288L30.1767 12.7978L30.1767 12.7978L30.2754 13.288ZM27.3764 15.2241L26.9622 14.944L26.9579 14.9506L27.3764 15.2241ZM26.7127 18.6464L27.2028 18.5477L27.2028 18.5477L26.7127 18.6464ZM28.6488 21.5453L28.3687 21.9596L28.3752 21.9639L28.6488 21.5453ZM32.0711 22.2091L31.9724 21.7189L31.9724 21.7189L32.0711 22.2091ZM34.97 20.273L35.3842 20.5531L35.5015 20.3796L35.4602 20.1743L34.97 20.273ZM44.2833 19.7509L44.3819 20.2411L45.175 20.0814L44.6776 19.4434L44.2833 19.7509ZM35.3622 21.5466L34.8796 21.4156L34.6678 22.1964L35.4609 22.0368L35.3622 21.5466ZM38.027 11.7277L38.4213 11.4202L37.8064 10.6316L37.5445 11.5967L38.027 11.7277ZM50.6246 16.1538L50.1344 16.2525L50.1344 16.2525L50.6246 16.1538ZM49.7293 11.706L50.2195 11.6074L50.2195 11.6074L49.7293 11.706ZM47.0476 9.91195L47.1462 10.4021L47.1462 10.4021L47.0476 9.91195ZM43.1223 10.7021L43.0236 10.2119L42.5335 10.3106L42.6321 10.8007L43.1223 10.7021ZM44.918 19.6231L44.4278 19.7218L44.5265 20.212L45.0167 20.1133L44.918 19.6231ZM48.8433 18.833L48.9419 19.3232L48.9419 19.3232L48.8433 18.833ZM58.0384 10.0335L57.5483 10.1322L57.5483 10.1322L58.0384 10.0335ZM56.2571 12.7127L56.1584 12.2225L55.3643 12.3824L55.8632 13.0206L56.2571 12.7127ZM55.3567 8.23942L55.258 7.74925L55.258 7.74925L55.3567 8.23942ZM50.055 9.30658L49.9564 8.81642L49.4662 8.91508L49.5649 9.40525L50.055 9.30658ZM51.8507 18.2277L51.3606 18.3263L51.4592 18.8165L51.9494 18.7178L51.8507 18.2277ZM59.3827 16.7116L59.4813 17.2017L60.2755 17.0419L59.7766 16.4036L59.3827 16.7116ZM64.3196 15.7178L64.4183 16.208L64.9085 16.1093L64.8098 15.6191L64.3196 15.7178ZM60.165 16.5541L59.6748 16.6528L59.7734 17.1429L60.2636 17.0443L60.165 16.5541ZM62.5239 6.79674L63.0141 6.69807L62.9154 6.20791L62.4252 6.30657L62.5239 6.79674ZM58.3692 7.63303L58.2706 7.14286L57.7804 7.24152L57.8791 7.73169L58.3692 7.63303ZM70.2315 5.2453L70.7216 5.14663L70.623 4.65646L70.1328 4.75513L70.2315 5.2453ZM71.3422 10.7636L71.4409 11.2538L71.9311 11.1551L71.8324 10.6649L71.3422 10.7636ZM63.2858 6.64338L63.1871 6.15322L62.6969 6.25188L62.7956 6.74205L63.2858 6.64338ZM65.0815 15.5645L64.5913 15.6631L64.69 16.1533L65.1802 16.0546L65.0815 15.5645ZM72.0272 14.1664L72.1258 14.6565L72.616 14.5579L72.5174 14.0677L72.0272 14.1664ZM71.4731 11.4136L71.9632 11.3149L71.8646 10.8247L71.3744 10.9234L71.4731 11.4136ZM67.8154 12.1498L67.3273 12.2581L67.4335 12.7367L67.9141 12.64L67.8154 12.1498ZM67.6719 11.5024L67.5732 11.0123L67.0733 11.1129L67.1837 11.6107L67.6719 11.5024ZM76.1291 9.01768L75.639 9.11635L75.7376 9.60652L76.2278 9.50785L76.1291 9.01768ZM79.6084 8.31736L80.0985 8.21869L79.9999 7.72852L79.5097 7.82719L79.6084 8.31736ZM75.1697 4.25128L75.6599 4.15262L75.5612 3.66245L75.0711 3.76111L75.1697 4.25128ZM71.0151 5.08757L70.9164 4.5974L70.4262 4.69607L70.5249 5.18624L71.0151 5.08757ZM72.8108 14.0086L72.3206 14.1073L72.4193 14.5975L72.9094 14.4988L72.8108 14.0086ZM80.4446 12.472L80.5433 12.9622L81.0335 12.8635L80.9348 12.3734L80.4446 12.472ZM38.8996 33.0753L38.9982 33.5654L39.7913 33.4058L39.2939 32.7678L38.8996 33.0753ZM29.9785 34.871L29.4959 34.74L29.284 35.5208L30.0772 35.3611L29.9785 34.871ZM32.6433 25.0521L33.0376 24.7446L32.4227 23.956L32.1608 24.9211L32.6433 25.0521ZM42.9801 27.9309L42.4899 28.0296L42.5886 28.5197L43.0788 28.4211L42.9801 27.9309ZM46.4593 27.2306L46.9495 27.1319L46.8508 26.6417L46.3607 26.7404L46.4593 27.2306ZM42.0207 23.1645L42.5109 23.0658L42.4122 22.5757L41.922 22.6743L42.0207 23.1645ZM37.866 24.0008L37.7674 23.5106L37.2772 23.6093L37.3759 24.0994L37.866 24.0008ZM39.6617 32.9218L39.1716 33.0205L39.2702 33.5107L39.7604 33.412L39.6617 32.9218ZM47.2956 31.3852L47.3943 31.8754L47.8844 31.7767L47.7858 31.2866L47.2956 31.3852ZM53.7821 27.7589L54.2723 27.6603L54.2723 27.6603L53.7821 27.7589ZM52.8868 23.3112L52.3967 23.4098L52.3967 23.4098L52.8868 23.3112ZM50.2051 21.5171L50.1064 21.0269L50.1064 21.0269L50.2051 21.5171ZM46.2798 22.3072L46.1811 21.817L45.691 21.9157L45.7896 22.4058L46.2798 22.3072ZM48.0755 31.2282L47.5853 31.3269L47.684 31.8171L48.1742 31.7184L48.0755 31.2282ZM52.0008 30.4381L52.0994 30.9283L52.0994 30.9283L52.0008 30.4381ZM59.4688 28.9349L59.5675 29.4251L59.5675 29.4251L59.4688 28.9349ZM54.1104 25.3722L54.6006 25.2736L54.6006 25.2736L54.1104 25.3722ZM63.0315 23.5765L63.5216 23.4779L63.5216 23.4779L63.0315 23.5765ZM57.6731 20.0138L57.7717 20.504L57.7717 20.504L57.6731 20.0138ZM2.41603 45.7774L31.416 2.27735L30.584 1.72265L1.58397 45.2226L2.41603 45.7774ZM70.4033 31.5094L1.90332 45.0094L2.09668 45.9906L70.5967 32.4906L70.4033 31.5094ZM70 22.5V32H71V22.5H70ZM90 22H70.5V23H90V22ZM98.035 0.816171L89.535 22.3162L90.465 22.6838L98.965 1.18383L98.035 0.816171ZM31.0074 2.49995L98.5074 1.49995L98.4926 0.500055L30.9926 1.50005L31.0074 2.49995ZM31.3228 18.2284L34.4325 17.6025L34.2351 16.6222L31.1255 17.2481L31.3228 18.2284ZM33.279 13.6783L30.8056 17.4648L31.6428 18.0117L34.1162 14.2252L33.279 13.6783ZM30.374 13.7782C31.4748 13.5566 32.5508 13.7995 33.4241 14.3703L33.9712 13.5332C32.8899 12.8265 31.5483 12.5218 30.1767 12.7978L30.374 13.7782ZM27.7906 15.5042C28.375 14.6401 29.2732 13.9998 30.374 13.7782L30.1767 12.7978C28.8051 13.0739 27.6858 13.874 26.9622 14.944L27.7906 15.5042ZM27.2028 18.5477C26.9813 17.4469 27.2242 16.3709 27.7949 15.4977L26.9579 14.9506C26.2512 16.0318 25.9464 17.3735 26.2225 18.7451L27.2028 18.5477ZM28.9289 21.1312C28.0647 20.5467 27.4244 19.6486 27.2028 18.5477L26.2225 18.7451C26.4986 20.1166 27.2987 21.2359 28.3687 21.9595L28.9289 21.1312ZM31.9724 21.7189C30.8716 21.9405 29.7956 21.6976 28.9223 21.1268L28.3752 21.9639C29.4565 22.6706 30.7981 22.9753 32.1697 22.6992L31.9724 21.7189ZM34.5558 19.9928C33.9714 20.857 33.0732 21.4973 31.9724 21.7189L32.1697 22.6992C33.5413 22.4232 34.6606 21.623 35.3842 20.5531L34.5558 19.9928ZM33.8436 17.211L34.4798 20.3716L35.4602 20.1743L34.824 17.0137L33.8436 17.211ZM44.1846 19.2607L35.2635 21.0564L35.4609 22.0368L44.3819 20.2411L44.1846 19.2607ZM37.6327 12.0351L43.889 20.0584L44.6776 19.4434L38.4213 11.4202L37.6327 12.0351ZM35.8447 21.6776L38.5096 11.8586L37.5445 11.5967L34.8796 21.4156L35.8447 21.6776ZM48.0466 14.8754C49.014 14.6807 49.943 15.3016 50.1344 16.2525L51.1148 16.0552C50.8136 14.5592 49.3544 13.5921 47.8493 13.8951L48.0466 14.8754ZM49.2391 11.8047C49.4313 12.7593 48.813 13.7011 47.8493 13.8951L48.0466 14.8754C49.5554 14.5717 50.5199 13.0997 50.2195 11.6074L49.2391 11.8047ZM47.1462 10.4021C48.1081 10.2085 49.0441 10.8356 49.2391 11.8047L50.2195 11.6074C49.9169 10.1041 48.4594 9.11773 46.9489 9.42179L47.1462 10.4021ZM43.2209 11.1922L47.1462 10.4021L46.9489 9.42179L43.0236 10.2119L43.2209 11.1922ZM45.4082 19.5245L43.6125 10.6034L42.6321 10.8007L44.4278 19.7218L45.4082 19.5245ZM48.7446 18.3429L44.8193 19.133L45.0167 20.1133L48.9419 19.3232L48.7446 18.3429ZM50.1344 16.2525C50.3288 17.218 49.7101 18.1485 48.7446 18.3429L48.9419 19.3232C50.4488 19.0199 51.4181 17.5621 51.1148 16.0552L50.1344 16.2525ZM57.5483 10.1322C57.7404 11.0867 57.1221 12.0286 56.1584 12.2225L56.3558 13.2029C57.8645 12.8992 58.829 11.4272 58.5286 9.93484L57.5483 10.1322ZM55.4554 8.72959C56.4172 8.53598 57.3532 9.16303 57.5483 10.1322L58.5286 9.93484C58.226 8.43157 56.7686 7.4452 55.258 7.74925L55.4554 8.72959ZM50.1537 9.79675L55.4554 8.72959L55.258 7.74925L49.9564 8.81642L50.1537 9.79675ZM52.3409 18.129L50.5452 9.20792L49.5649 9.40525L51.3606 18.3263L52.3409 18.129ZM59.284 16.2214L51.7521 17.7375L51.9494 18.7178L59.4813 17.2017L59.284 16.2214ZM55.8632 13.0206L58.9887 17.0195L59.7766 16.4036L56.6511 12.4048L55.8632 13.0206ZM64.221 15.2276L60.0663 16.0639L60.2636 17.0443L64.4183 16.208L64.221 15.2276ZM62.0337 6.89541L63.8294 15.8165L64.8098 15.6191L63.0141 6.69807L62.0337 6.89541ZM58.4679 8.1232L62.6226 7.28691L62.4252 6.30657L58.2706 7.14286L58.4679 8.1232ZM60.6551 16.4554L58.8594 7.53436L57.8791 7.73169L59.6748 16.6528L60.6551 16.4554ZM69.7413 5.34396L70.8521 10.8623L71.8324 10.6649L70.7216 5.14663L69.7413 5.34396ZM63.3844 7.13355L70.3301 5.73546L70.1328 4.75513L63.1871 6.15322L63.3844 7.13355ZM65.5717 15.4658L63.776 6.54472L62.7956 6.74205L64.5913 15.6631L65.5717 15.4658ZM71.9285 13.6762L64.9828 15.0743L65.1802 16.0546L72.1258 14.6565L71.9285 13.6762ZM70.9829 11.5122L71.537 14.265L72.5174 14.0677L71.9632 11.3149L70.9829 11.5122ZM67.9141 12.64L71.5717 11.9037L71.3744 10.9234L67.7168 11.6596L67.9141 12.64ZM67.1837 11.6107L67.3273 12.2581L68.3036 12.0416L68.16 11.3942L67.1837 11.6107ZM71.2436 10.2734L67.5732 11.0123L67.7705 11.9926L71.4409 11.2538L71.2436 10.2734ZM76.2278 9.50785L79.707 8.80752L79.5097 7.82719L76.0305 8.52751L76.2278 9.50785ZM74.6795 4.34995L75.639 9.11635L76.6193 8.91902L75.6599 4.15262L74.6795 4.34995ZM71.1137 5.57774L75.2684 4.74145L75.0711 3.76111L70.9164 4.5974L71.1137 5.57774ZM73.3009 13.91L71.5052 4.9889L70.5249 5.18624L72.3206 14.1073L73.3009 13.91ZM80.346 11.9819L72.7121 13.5185L72.9094 14.4988L80.5433 12.9622L80.346 11.9819ZM79.1182 8.41602L79.9545 12.5707L80.9348 12.3734L80.0985 8.21869L79.1182 8.41602ZM38.8009 32.5851L29.8798 34.3808L30.0772 35.3611L38.9982 33.5654L38.8009 32.5851ZM32.249 25.3595L38.5053 33.3827L39.2939 32.7678L33.0376 24.7446L32.249 25.3595ZM30.461 35.0019L33.1259 25.183L32.1608 24.9211L29.4959 34.74L30.461 35.0019ZM43.0788 28.4211L46.558 27.7207L46.3607 26.7404L42.8814 27.4407L43.0788 28.4211ZM41.5305 23.2632L42.4899 28.0296L43.4703 27.8322L42.5109 23.0658L41.5305 23.2632ZM37.9647 24.4909L42.1194 23.6547L41.922 22.6743L37.7674 23.5106L37.9647 24.4909ZM40.1519 32.8232L38.3562 23.9021L37.3759 24.0994L39.1716 33.0205L40.1519 32.8232ZM47.197 30.8951L39.5631 32.4317L39.7604 33.412L47.3943 31.8754L47.197 30.8951ZM45.9692 27.3292L46.8054 31.4839L47.7858 31.2866L46.9495 27.1319L45.9692 27.3292ZM51.2042 26.4805C52.1715 26.2858 53.1005 26.9067 53.292 27.8576L54.2723 27.6603C53.9712 26.1643 52.5119 25.1972 51.0068 25.5002L51.2042 26.4805ZM52.3967 23.4098C52.5888 24.3644 51.9705 25.3062 51.0068 25.5002L51.2042 26.4805C52.7129 26.1768 53.6774 24.7048 53.377 23.2125L52.3967 23.4098ZM50.3037 22.0072C51.2656 21.8136 52.2016 22.4407 52.3967 23.4098L53.377 23.2125C53.0744 21.7092 51.617 20.7228 50.1064 21.0269L50.3037 22.0072ZM46.3785 22.7974L50.3037 22.0072L50.1064 21.0269L46.1811 21.817L46.3785 22.7974ZM48.5657 31.1296L46.77 22.2085L45.7896 22.4058L47.5853 31.3269L48.5657 31.1296ZM51.9021 29.948L47.9768 30.7381L48.1742 31.7184L52.0994 30.9283L51.9021 29.948ZM53.292 27.8576C53.4863 28.8231 52.8676 29.7536 51.9021 29.948L52.0994 30.9283C53.6064 30.625 54.5756 29.1672 54.2723 27.6603L53.292 27.8576ZM59.3701 28.4447C57.1684 28.8879 55.0437 27.4753 54.6006 25.2736L53.6202 25.4709C54.1724 28.214 56.8243 29.9772 59.5675 29.4251L59.3701 28.4447ZM62.5413 23.6752C62.9843 25.876 61.56 28.0039 59.3701 28.4447L59.5675 29.4251C62.2969 28.8757 64.074 26.2219 63.5216 23.4779L62.5413 23.6752ZM57.7717 20.504C59.9607 20.0634 62.1007 21.4862 62.5413 23.6752L63.5216 23.4779C62.972 20.7475 60.3048 18.9741 57.5744 19.5237L57.7717 20.504ZM54.6006 25.2736C54.1598 23.0837 55.571 20.947 57.7717 20.504L57.5744 19.5237C54.8304 20.076 53.0708 22.7414 53.6202 25.4709L54.6006 25.2736Z" fill="black"/>
</svg>
